<svg width="20" height="20" viewBox="0 0 20 20" fill="none" xmlns="http://www.w3.org/2000/svg">
<g clip-path="url(#clip0_59_297)">
<path fill-rule="evenodd" clip-rule="evenodd" d="M9.96806 0.303101C11.7709 0.323674 13.3996 0.766763 14.8542 1.63237C16.2914 2.4807 17.487 3.68355 18.3265 5.12591C19.1868 6.58923 19.6273 8.22781 19.6478 10.0416C19.5967 12.5234 18.8139 14.6431 17.2995 16.4007C15.785 18.1582 13.8454 19.2456 11.8374 19.6624V12.7043H13.7358L14.1651 9.96994H11.2906V8.179C11.2746 7.80772 11.392 7.44299 11.6216 7.15075C11.8515 6.85771 12.2563 6.70369 12.836 6.68869H14.5718V4.29344C14.5469 4.28543 14.3106 4.25374 13.8628 4.19838C13.355 4.13896 12.8444 4.10723 12.3332 4.10332C11.176 4.10865 10.2609 4.43505 9.5878 5.08251C8.91465 5.72979 8.57079 6.66626 8.55621 7.89192V9.96994H6.36871V12.7043H8.55621V19.6624C6.09079 19.2456 4.15114 18.1582 2.63668 16.4007C1.12223 14.6431 0.339496 12.5234 0.288395 10.0416C0.30884 8.22772 0.749252 6.58914 1.60963 5.12591C2.44919 3.68355 3.64474 2.4807 5.08196 1.63237C6.53648 0.76693 8.16518 0.32384 9.96806 0.303101Z" fill="#EBEFF6"/>
</g>
<defs>
<clipPath id="clip0_59_297">
<rect width="20" height="20" fill="white"/>
</clipPath>
</defs>
</svg>
