<svg width="20" height="20" viewBox="0 0 20 20" fill="none" xmlns="http://www.w3.org/2000/svg">
<path fill-rule="evenodd" clip-rule="evenodd" d="M4.16667 1.66663H15.8333C16.75 1.66663 17.5 2.41663 17.5 3.33329V16C17.5 17.1666 16.3333 18 15.25 17.5833L13.9167 17.0833C13.5 16.9166 13.0833 16.9166 12.6667 17.1666L10.6667 18.0833C10.25 18.25 9.75 18.25 9.33333 18.0833L7.33333 17.1666C6.91667 17 6.5 17 6.08333 17.0833L4.75 17.5C3.66667 17.9166 2.5 17.0833 2.5 16V3.33329C2.5 2.41663 3.25 1.66663 4.16667 1.66663ZM14.1667 6.49996C14.5 6.49996 14.8333 6.24996 14.8333 5.83329C14.8333 5.41663 14.5 5.16663 14.1667 5.16663H5.83333C5.5 5.16663 5.16667 5.49996 5.16667 5.83329C5.16667 6.16663 5.5 6.49996 5.83333 6.49996H14.1667ZM14.8333 9.16663C14.8333 9.49996 14.5833 9.83329 14.1667 9.83329H5.83333C5.5 9.83329 5.16667 9.58329 5.16667 9.16663C5.16667 8.74996 5.41667 8.49996 5.83333 8.49996H14.1667C14.5 8.49996 14.8333 8.83329 14.8333 9.16663ZM10 13.1666C10.3333 13.1666 10.6667 12.9166 10.6667 12.5C10.6667 12.0833 10.4167 11.8333 10 11.8333H5.83333C5.5 11.8333 5.16667 12.0833 5.16667 12.5C5.16667 12.9166 5.41667 13.1666 5.83333 13.1666H10Z" fill="#EBEFF6"/>
</svg>
