<svg width="20" height="20" viewBox="0 0 20 20" fill="none" xmlns="http://www.w3.org/2000/svg">
<g clip-path="url(#clip0_59_299)">
<path d="M10 20C15.5228 20 20 15.5228 20 10C20 4.47715 15.5228 0 10 0C4.47715 0 0 4.47715 0 10C0 15.5228 4.47715 20 10 20Z" fill="#EBEFF6"/>
<path d="M16.25 9.77268C16.2411 9.89967 16.2248 10.026 16.2011 10.1511C16.1221 10.63 15.9602 11.0914 15.7227 11.5147C15.6091 11.717 15.0625 12.4852 14.8955 12.6875C13.9716 13.8 12.4239 15.084 9.8375 16.3329C9.78294 16.3593 9.72233 16.3706 9.66193 16.3658C9.60153 16.3609 9.54351 16.34 9.49385 16.3053C9.44419 16.2706 9.40468 16.2233 9.3794 16.1682C9.35412 16.1131 9.34397 16.0523 9.35 15.992L9.48068 14.8181C9.49057 14.7283 9.46441 14.6383 9.40795 14.5678C9.35148 14.4972 9.26933 14.452 9.17955 14.442C8.31913 14.3559 7.48098 14.1169 6.70455 13.7363C4.93182 12.8602 3.75 11.2954 3.75 9.51246C3.75 6.767 6.54773 4.54541 10 4.54541C11.7341 4.54541 13.3023 5.11359 14.4318 6.01473C15.4898 6.86132 16.167 8.01018 16.2398 9.28518C16.2519 9.44738 16.2553 9.61012 16.25 9.77268Z" fill="#9E84BB"/>
<path d="M8.27727 10.6124C8.3075 10.642 8.33144 10.6774 8.34765 10.7164C8.36386 10.7555 8.372 10.7974 8.37159 10.8397C8.37174 10.8817 8.36359 10.9234 8.34761 10.9622C8.33163 11.0011 8.30814 11.0364 8.27847 11.0662C8.2488 11.096 8.21355 11.1196 8.17473 11.1357C8.13592 11.1518 8.0943 11.1601 8.05227 11.1601H6.77387C6.68897 11.1598 6.60763 11.126 6.5476 11.0659C6.48757 11.0059 6.45371 10.9246 6.45341 10.8397V8.42491C6.45313 8.38264 6.46133 8.34075 6.47753 8.30171C6.49373 8.26267 6.5176 8.22728 6.54773 8.19764C6.59246 8.15277 6.64952 8.12222 6.71166 8.10988C6.7738 8.09754 6.8382 8.10396 6.89668 8.12832C6.95516 8.15269 7.00508 8.1939 7.04007 8.24671C7.07506 8.29953 7.09355 8.36156 7.09318 8.42491V10.5192H8.05227C8.09411 10.5189 8.13558 10.527 8.17422 10.543C8.21287 10.559 8.24792 10.5826 8.27727 10.6124Z" fill="#EBEFF6"/>
<path d="M9.31818 8.3556V10.909C9.31788 10.9752 9.29145 11.0386 9.24463 11.0855C9.19781 11.1323 9.13439 11.1587 9.06818 11.159H8.925C8.8587 11.159 8.79511 11.1327 8.74822 11.0858C8.70134 11.0389 8.675 10.9753 8.675 10.909V8.3556C8.675 8.2893 8.70134 8.22571 8.74822 8.17882C8.79511 8.13194 8.8587 8.1056 8.925 8.1056H9.06477C9.09785 8.1053 9.13066 8.11154 9.16131 8.12395C9.19197 8.13637 9.21987 8.15472 9.24342 8.17795C9.26697 8.20118 9.28569 8.22883 9.29852 8.25932C9.31135 8.2898 9.31803 8.32252 9.31818 8.3556Z" fill="#EBEFF6"/>
<path d="M12.2864 8.42495V10.8261C12.2864 10.9125 12.2529 10.9955 12.1929 11.0576C12.1329 11.1197 12.0511 11.1561 11.9648 11.159C11.8839 11.1577 11.8064 11.1261 11.7477 11.0704C11.7364 11.0613 11.3068 10.5022 10.942 10.0318C10.6693 9.68063 10.433 9.37382 10.433 9.37382V10.8386C10.4332 10.9007 10.4153 10.9615 10.3815 11.0135C10.3477 11.0656 10.2994 11.1067 10.2426 11.1318C10.1858 11.1569 10.123 11.1649 10.0617 11.1548C10.0005 11.1447 9.94347 11.1169 9.89773 11.075C9.86473 11.0451 9.83838 11.0086 9.82037 10.9679C9.80237 10.9271 9.7931 10.8831 9.79318 10.8386V8.43859C9.79213 8.35422 9.82348 8.27265 9.88077 8.21071C9.93807 8.14876 10.0169 8.11116 10.1011 8.10563C10.1488 8.10486 10.196 8.11464 10.2394 8.13429C10.2829 8.15394 10.3214 8.18296 10.3523 8.21927C10.3659 8.23518 11.0261 9.09427 11.3977 9.58291C11.5455 9.77382 11.6477 9.90791 11.6477 9.90791V8.43063C11.6483 8.34613 11.6822 8.26525 11.7419 8.2055C11.8017 8.14574 11.8825 8.11191 11.967 8.11132C12.0508 8.1113 12.1311 8.14416 12.1909 8.20282C12.2506 8.26148 12.2849 8.34125 12.2864 8.42495Z" fill="#EBEFF6"/>
<path d="M13.4091 9.951V10.5192H14.367C14.4107 10.5166 14.4543 10.5229 14.4954 10.5378C14.5365 10.5527 14.5741 10.5759 14.6059 10.6058C14.6377 10.6358 14.663 10.6719 14.6803 10.712C14.6976 10.7522 14.7066 10.7954 14.7066 10.8391C14.7066 10.8828 14.6976 10.926 14.6803 10.9661C14.663 11.0062 14.6377 11.0424 14.6059 11.0723C14.5741 11.1023 14.5365 11.1254 14.4954 11.1403C14.4543 11.1552 14.4107 11.1616 14.367 11.159H13.0852C13.0004 11.1587 12.9192 11.1248 12.8594 11.0647C12.7995 11.0046 12.7659 10.9233 12.7659 10.8385V8.42487C12.7662 8.34027 12.7999 8.25922 12.8598 8.19941C12.9196 8.13959 13.0006 8.10585 13.0852 8.10555H14.3636C14.4073 8.10295 14.4509 8.10929 14.492 8.12419C14.5331 8.13909 14.5707 8.16223 14.6025 8.19219C14.6343 8.22215 14.6596 8.2583 14.6769 8.29841C14.6942 8.33852 14.7032 8.38175 14.7032 8.42543C14.7032 8.46912 14.6942 8.51235 14.6769 8.55246C14.6596 8.59257 14.6343 8.62872 14.6025 8.65868C14.5707 8.68864 14.5331 8.71178 14.492 8.72668C14.4509 8.74158 14.4073 8.74792 14.3636 8.74532H13.4091V9.3135H14.367C14.4517 9.3135 14.533 9.34715 14.5928 9.40703C14.6527 9.46691 14.6864 9.54813 14.6864 9.63282C14.6864 9.71751 14.6527 9.79873 14.5928 9.85861C14.533 9.9185 14.4517 9.95214 14.367 9.95214L13.4091 9.951Z" fill="#EBEFF6"/>
</g>
<defs>
<clipPath id="clip0_59_299">
<rect width="20" height="20" fill="white"/>
</clipPath>
</defs>
</svg>
