<svg width="159" height="39" viewBox="0 0 159 39" fill="none" xmlns="http://www.w3.org/2000/svg">
<path d="M9.72374 27.9524C9.92171 28.6059 9.45978 29.2593 8.79988 29.4375C8.07399 29.6157 7.34809 29.1999 7.15012 28.6059C6.95215 27.9524 7.41408 27.299 8.07399 27.1208C8.79988 26.8832 9.52577 27.299 9.72374 27.9524Z" fill="#7B59A3"/>
<path d="M7.74384 24.2692C6.22607 25.279 4.84028 26.4671 3.71844 27.7146C3.19052 28.368 2.6626 29.0215 2.33265 29.7937C1.93671 30.5066 1.80473 31.2789 1.60676 31.9917C1.47478 32.7046 1.47478 33.5362 1.67275 34.2491C1.87072 34.9619 2.26666 35.6154 2.86057 36.15C3.45448 36.6846 4.24636 37.1005 5.10424 37.3975C5.96211 37.6945 6.88597 37.8727 7.80983 37.9321C6.88597 38.1103 5.89612 38.0509 4.90626 37.9321C3.91641 37.7539 2.99255 37.4569 2.13468 36.8628C1.27681 36.2688 0.616907 35.4371 0.352946 34.5461C0.0229955 33.655 -0.0429946 32.7046 0.0229955 31.7541C0.154976 30.8036 0.616907 29.9126 1.14483 29.1403C1.67275 28.368 2.33265 27.7146 3.05854 27.1206C4.37834 25.9325 6.0281 24.982 7.74384 24.2692Z" fill="#7B59A3"/>
<path d="M27.9366 4.3688C27.8706 2.40846 26.8807 1.16097 25.6929 0.507529C23.3833 -0.680553 19.4239 -0.145916 15.3985 6.09152C9.72331 14.9427 9.65732 22.3682 11.1751 23.1405C11.637 23.3781 12.6269 23.1999 13.9467 22.5465C16.9162 21.1208 21.5355 17.4377 25.4949 11.2597C27.2767 8.40828 28.0026 6.09152 27.9366 4.3688Z" fill="#7B59A3"/>
<path d="M34.8652 4.60653C33.9413 3.83427 32.5555 3.41844 30.7738 3.71546C30.7738 3.89368 30.8398 4.13129 30.8398 4.30951C30.9058 6.50746 29.9819 9.06184 28.1342 11.9132C24.0428 18.3289 19.2255 22.1902 15.992 23.7347C15.7941 23.8535 15.5961 23.9129 15.3321 24.0317C16.6519 25.101 24.4388 22.7248 32.0936 15.1805C37.5048 9.83409 36.8449 6.26984 34.8652 4.60653Z" fill="#7B59A3"/>
<path d="M155.598 35V16.375H158.998V35H155.598Z" fill="#7B59A3"/>
<path d="M136.275 35L142.7 16.375H147.1L153.525 35H149.825L148.5 31H141.3L139.95 35H136.275ZM142.275 28H147.525L144.425 18.725H145.375L142.275 28Z" fill="#7B59A3"/>
<path d="M120.325 18.45L123.525 19.1C122.575 20.4334 121.433 21.6667 120.1 22.8C118.767 23.9167 117.133 24.9167 115.2 25.8C115.083 25.5667 114.908 25.3084 114.675 25.025C114.442 24.7417 114.2 24.4667 113.95 24.2C113.7 23.9334 113.458 23.725 113.225 23.575C114.992 22.9084 116.458 22.125 117.625 21.225C118.808 20.3084 119.708 19.3834 120.325 18.45ZM121 20.15L128.475 20.15V22.375L118.975 22.375L121 20.15ZM127.575 20.15H128.15L128.675 20L130.7 21.225C129.867 22.6084 128.825 23.8417 127.575 24.925C126.325 25.9917 124.917 26.925 123.35 27.725C121.8 28.525 120.15 29.2084 118.4 29.775C116.667 30.325 114.9 30.775 113.1 31.125C112.967 30.7417 112.767 30.2917 112.5 29.775C112.233 29.2417 111.967 28.8084 111.7 28.475C113.367 28.225 115.008 27.8667 116.625 27.4C118.258 26.9334 119.783 26.375 121.2 25.725C122.633 25.0584 123.9 24.2917 125 23.425C126.1 22.5584 126.958 21.6084 127.575 20.575V20.15ZM119.825 21.825C120.792 22.9084 122.05 23.85 123.6 24.65C125.167 25.45 126.942 26.1167 128.925 26.65C130.925 27.1667 133.042 27.5334 135.275 27.75C135.058 27.9834 134.825 28.275 134.575 28.625C134.342 28.9584 134.117 29.3084 133.9 29.675C133.683 30.025 133.508 30.3417 133.375 30.625C131.075 30.3084 128.917 29.825 126.9 29.175C124.9 28.5084 123.083 27.6667 121.45 26.65C119.817 25.6167 118.408 24.3917 117.225 22.975L119.825 21.825ZM116.425 29.4L130.825 29.4V37.2H127.725V31.875L119.375 31.875V37.25H116.425V29.4ZM117.9 34H129.225V36.475H117.9V34ZM121.875 13.775H124.975V17.325L121.875 17.325V13.775ZM112.725 15.8L134.275 15.8V21.35H131.2V18.525L115.675 18.525V21.35H112.725V15.8Z" fill="#7B59A3"/>
<path d="M94.975 15.625L109.8 15.625V17.975L94.975 17.975V15.625ZM102.3 29.7L108.975 29.7V32.025H102.3V29.7ZM94.55 22.425L110.375 22.425V24.75L94.55 24.75V22.425ZM96.025 19.025L108.8 19.025V28.25L96.025 28.25V26.025L106.025 26.025V21.3L96.025 21.3V19.025ZM100.7 13.75L103.475 13.75V35.75L100.7 34.15V13.75ZM95.9 28.6L98.625 28.95C98.375 30.7167 97.9583 32.325 97.375 33.775C96.8083 35.2083 96.05 36.4 95.1 37.35C94.9333 37.2 94.7083 37.0167 94.425 36.8C94.1583 36.5833 93.875 36.375 93.575 36.175C93.2917 35.975 93.0417 35.8167 92.825 35.7C93.725 34.9167 94.4167 33.9083 94.9 32.675C95.3833 31.4417 95.7167 30.0833 95.9 28.6ZM97.9 30.725C98.3667 31.7583 98.9833 32.5417 99.75 33.075C100.517 33.6083 101.392 33.9667 102.375 34.15C103.375 34.3333 104.45 34.4333 105.6 34.45C105.783 34.45 106.083 34.45 106.5 34.45C106.917 34.45 107.375 34.45 107.875 34.45C108.392 34.45 108.875 34.45 109.325 34.45C109.775 34.4333 110.133 34.4167 110.4 34.4C110.283 34.6 110.167 34.8583 110.05 35.175C109.933 35.4917 109.833 35.8083 109.75 36.125C109.667 36.4417 109.6 36.725 109.55 36.975H108.55H105.4C103.917 36.975 102.567 36.825 101.35 36.525C100.15 36.2417 99.0917 35.7083 98.175 34.925C97.2583 34.125 96.475 32.9917 95.825 31.525L97.9 30.725ZM86.525 26.325C87.525 26.1083 88.7167 25.8167 90.1 25.45C91.5 25.0833 92.9083 24.7 94.325 24.3L94.7 27C93.4167 27.3833 92.1167 27.7667 90.8 28.15C89.5 28.5333 88.2917 28.8833 87.175 29.2L86.525 26.325ZM86.925 18.5H94.575V21.25H86.925V18.5ZM89.55 13.775L92.3 13.775V34.075C92.3 34.7583 92.225 35.3 92.075 35.7C91.9417 36.1167 91.6833 36.4417 91.3 36.675C90.9333 36.9083 90.4667 37.0667 89.9 37.15C89.35 37.2333 88.6583 37.2667 87.825 37.25C87.7917 36.8833 87.7 36.425 87.55 35.875C87.4 35.3417 87.2333 34.875 87.05 34.475C87.5167 34.4917 87.9417 34.5083 88.325 34.525C88.725 34.525 89 34.5167 89.15 34.5C89.3 34.5 89.4 34.475 89.45 34.425C89.5167 34.3583 89.55 34.2417 89.55 34.075V13.775Z" fill="#7B59A3"/>
<path d="M73.6 19.35L80.975 19.35V21.575L73.6 21.575V19.35ZM73 24.9V27.25H74.55V24.9H73ZM70.875 22.9501H76.775V29.25H70.875V22.9501ZM80.025 24.9V27.25H81.65V24.9H80.025ZM77.85 22.9501L83.95 22.9501V29.25L77.85 29.25V22.9501ZM72.75 29.625L75.35 30.125C74.95 31.625 74.35 33 73.55 34.25C72.7667 35.4834 71.8583 36.4917 70.825 37.275C70.6917 37.1084 70.5083 36.9 70.275 36.65C70.0417 36.4167 69.7917 36.1834 69.525 35.9501C69.275 35.7167 69.0583 35.5334 68.875 35.4C69.825 34.75 70.625 33.925 71.275 32.925C71.9417 31.925 72.4333 30.825 72.75 29.625ZM72.7 32.975L74.35 31.375C74.8167 31.7417 75.2917 32.1667 75.775 32.65C76.2583 33.1167 76.6333 33.525 76.9 33.875L75.15 35.625C74.9 35.2584 74.5417 34.8251 74.075 34.3251C73.6083 33.8084 73.15 33.3584 72.7 32.975ZM79.4 29.6L82.075 29.975C81.7583 31.5584 81.2583 32.975 80.575 34.225C79.8917 35.4584 79.0083 36.475 77.925 37.275C77.8083 37.1084 77.625 36.9 77.375 36.65C77.1417 36.4167 76.9 36.175 76.65 35.925C76.4167 35.6917 76.2 35.5084 76 35.375C76.9333 34.7417 77.675 33.9334 78.225 32.9501C78.7917 31.9501 79.1833 30.8334 79.4 29.6ZM79.05 33.125L80.85 31.4501C81.3333 31.8167 81.85 32.225 82.4 32.675C82.95 33.1084 83.475 33.5584 83.975 34.025C84.475 34.475 84.8833 34.8834 85.2 35.25L83.275 37.15C82.975 36.7667 82.5833 36.3417 82.1 35.875C81.6333 35.4084 81.125 34.9334 80.575 34.4501C80.0417 33.9501 79.5333 33.5084 79.05 33.125ZM77.25 16.5001C76.8 17.1834 76.225 17.8917 75.525 18.625C74.825 19.3584 74.05 20.05 73.2 20.7C72.3667 21.3334 71.5 21.875 70.6 22.325C70.45 21.9417 70.2333 21.5084 69.95 21.025C69.6833 20.525 69.4167 20.1084 69.15 19.775C70.0667 19.3584 70.9417 18.825 71.775 18.175C72.625 17.5084 73.3917 16.8 74.075 16.05C74.775 15.2834 75.3333 14.5334 75.75 13.8H78.55C79.1333 14.6334 79.8 15.425 80.55 16.175C81.3 16.925 82.1 17.5917 82.95 18.175C83.8167 18.7417 84.6833 19.2 85.55 19.55C85.25 19.9167 84.95 20.3584 84.65 20.8751C84.3667 21.375 84.125 21.8417 83.925 22.275C83.0917 21.8417 82.2583 21.3167 81.425 20.7C80.5917 20.0667 79.8083 19.3917 79.075 18.675C78.3417 17.9417 77.7333 17.2167 77.25 16.5001ZM62.775 14.825H68.575V17.525H65.4V37.25H62.775L62.775 14.825ZM67.675 14.825H68.15L68.575 14.725L70.525 15.85C70.325 16.55 70.1 17.3084 69.85 18.1251C69.6167 18.9417 69.375 19.7417 69.125 20.525C68.875 21.2917 68.6333 22.0084 68.4 22.675C69.15 23.6417 69.6333 24.55 69.85 25.4C70.0833 26.2334 70.2 27.0167 70.2 27.75C70.2 28.55 70.1083 29.2167 69.925 29.75C69.7583 30.2834 69.475 30.6917 69.075 30.975C68.875 31.1084 68.6583 31.2167 68.425 31.3C68.1917 31.3834 67.9417 31.45 67.675 31.5C67.4583 31.5167 67.2083 31.5334 66.925 31.55C66.6583 31.5667 66.375 31.5667 66.075 31.55C66.0583 31.2 66 30.775 65.9 30.275C65.8 29.775 65.65 29.35 65.45 29C65.65 29.0167 65.8333 29.025 66 29.025C66.1833 29.025 66.3417 29.025 66.475 29.025C66.775 29.025 67 28.9584 67.15 28.825C67.3 28.7084 67.4 28.525 67.45 28.275C67.5167 28.025 67.55 27.725 67.55 27.375C67.55 26.7917 67.4417 26.125 67.225 25.375C67.0083 24.625 66.5583 23.8334 65.875 23C66.0583 22.4334 66.2333 21.8167 66.4 21.15C66.5667 20.4667 66.7333 19.7834 66.9 19.1C67.0667 18.4167 67.2167 17.7834 67.35 17.2C67.4833 16.6 67.5917 16.1 67.675 15.7V14.825Z" fill="#7B59A3"/>
<path d="M50.575 22.6L53.575 22.6V37.25H50.575V22.6ZM43.975 25.75L60.05 25.75V28.45L43.975 28.45V25.75ZM54.15 26.95C54.6167 27.85 55.2 28.7416 55.9 29.625C56.6167 30.5083 57.3917 31.325 58.225 32.075C59.075 32.825 59.9333 33.45 60.8 33.95C60.5833 34.1166 60.3333 34.3416 60.05 34.625C59.7833 34.9083 59.525 35.2 59.275 35.5C59.0417 35.8 58.8417 36.075 58.675 36.325C57.8083 35.7083 56.95 34.9416 56.1 34.025C55.2667 33.1083 54.4833 32.1166 53.75 31.05C53.0333 29.9666 52.4167 28.8666 51.9 27.75L54.15 26.95ZM50.15 26.7L52.5 27.525C51.9667 28.6916 51.3167 29.8333 50.55 30.95C49.7833 32.05 48.9417 33.0583 48.025 33.975C47.1083 34.875 46.15 35.6416 45.15 36.275C45 36.025 44.8 35.75 44.55 35.45C44.3167 35.15 44.0667 34.8666 43.8 34.6C43.55 34.3166 43.3083 34.075 43.075 33.875C44.0417 33.375 44.975 32.75 45.875 32C46.775 31.2333 47.5917 30.4 48.325 29.5C49.075 28.5833 49.6833 27.65 50.15 26.7ZM48.475 17.5V20.85L55.825 20.85V17.5L48.475 17.5ZM45.65 14.85L58.85 14.85V23.475L45.65 23.475V14.85ZM42.375 13.825L45.15 14.725C44.6 16.1416 43.9417 17.5583 43.175 18.975C42.425 20.375 41.6083 21.7083 40.725 22.975C39.8583 24.225 38.9667 25.325 38.05 26.275C37.9667 26.025 37.8333 25.7083 37.65 25.325C37.4667 24.9416 37.2667 24.55 37.05 24.15C36.8333 23.75 36.6333 23.4333 36.45 23.2C37.2333 22.4333 37.9917 21.55 38.725 20.55C39.4583 19.55 40.1333 18.475 40.75 17.325C41.3833 16.175 41.925 15.0083 42.375 13.825ZM39.95 20.725L42.8 17.875V17.9V37.175H39.95V20.725Z" fill="#7B59A3"/>
</svg>
